<?xml version="1.0" standalone="no"?><!DOCTYPE svg PUBLIC "-//W3C//DTD SVG 1.1//EN" "http://www.w3.org/Graphics/SVG/1.1/DTD/svg11.dtd"><svg t="1597385686870" class="icon" viewBox="0 0 1092 1024" version="1.1" xmlns="http://www.w3.org/2000/svg" p-id="2791" xmlns:xlink="http://www.w3.org/1999/xlink" width="213.28125" height="200"><defs><style type="text/css"></style></defs><path d="M783.479819 270.010752a43.89453 43.89453 0 0 0-23.073641-24.23415 46.420343 46.420343 0 0 0-29.490571-5.188156 45.3281 45.3281 0 0 0-15.837529 84.102739 255.038826 255.038826 0 0 1 71.541941 176.87516 255.858008 255.858008 0 0 1-84.648861 189.572489 43.758 43.758 0 0 0-15.700998 33.586484c0 24.438945 20.274767 44.304122 45.328099 44.304121a45.737691 45.737691 0 0 0 32.630771-13.584776 43.758 43.758 0 0 0 19.250789-22.390989 339.346361 339.346361 0 0 0 91.748443-231.419064 339.551156 339.551156 0 0 0-91.748443-231.623858zM942.059903 108.426999a46.420343 46.420343 0 0 0-41.573513-25.258128 45.737691 45.737691 0 0 0-46.283813 45.191569c0 16.38365 8.874477 30.719345 22.322724 38.706375a439.764485 439.764485 0 0 1 126.905026 308.55875c0 134.004608-60.756037 254.014848-156.395597 335.864835l0.13653 0.273061a44.440652 44.440652 0 0 0-25.326393 39.866883c0 24.575476 20.411298 44.577182 45.532896 44.577182a45.874221 45.874221 0 0 0 37.750661-19.319054l0.13653 0.068265C1019.609182 779.132691 1092.243365 635.775749 1092.243365 475.5573a525.232528 525.232528 0 0 0-150.183462-367.130301zM454.987627 31.560372L227.32315 259.156583H88.539978C29.149245 259.156583 0 290.42205 0 345.785135V634.205649c0 54.475638 30.104958 86.560287 88.539978 86.560287H227.32315l227.664477 227.664476c65.398072 60.073385 164.928748 33.586483 164.928748-66.148989V97.641096C619.916375-3.05009 519.156925-27.284239 454.987627 31.560372z m76.38877 806.41693c0 65.534602-29.763632 28.807919-60.209915-0.682652-53.246864-51.198908-133.526751-134.072873-199.53921-203.089001H147.589385c-44.850243 0-59.049407-14.67702-59.049407-57.684103V403.469238c0-42.119635 15.086611-57.684103 59.049407-57.684103H273.060841c65.671132-69.425719 145.200102-152.094889 198.310436-202.884205 30.173223-28.876184 60.00512-66.42205 60.00512 1.774896v693.301476z" fill="#333333" p-id="2792"></path></svg>